<svg xmlns="http://www.w3.org/2000/svg" xmlns:xlink="http://www.w3.org/1999/xlink" width="500" zoomAndPan="magnify" viewBox="0 0 375 374.999991" height="500" preserveAspectRatio="xMidYMid meet" version="1.0"><defs><g/><clipPath id="0458e16629"><path d="M 164.445312 140.027344 L 210.554688 140.027344 L 210.554688 186.132812 L 164.445312 186.132812 Z M 164.445312 140.027344 " clip-rule="nonzero"/></clipPath><clipPath id="8a1bed89ce"><path d="M 187.5 140.027344 C 174.769531 140.027344 164.445312 150.347656 164.445312 163.082031 C 164.445312 175.8125 174.769531 186.132812 187.5 186.132812 C 200.230469 186.132812 210.554688 175.8125 210.554688 163.082031 C 210.554688 150.347656 200.230469 140.027344 187.5 140.027344 " clip-rule="nonzero"/></clipPath><clipPath id="957ccba337"><path d="M 215.433594 192.761719 L 231.949219 192.761719 L 231.949219 209.277344 L 215.433594 209.277344 Z M 215.433594 192.761719 " clip-rule="nonzero"/></clipPath><clipPath id="d81a834b84"><path d="M 223.691406 192.761719 C 219.128906 192.761719 215.433594 196.457031 215.433594 201.019531 C 215.433594 205.582031 219.128906 209.277344 223.691406 209.277344 C 228.253906 209.277344 231.949219 205.582031 231.949219 201.019531 C 231.949219 196.457031 228.253906 192.761719 223.691406 192.761719 " clip-rule="nonzero"/></clipPath><clipPath id="df537021d0"><path d="M 150.828125 125.390625 L 224.328125 125.390625 L 224.328125 222.792969 L 150.828125 222.792969 Z M 150.828125 125.390625 " clip-rule="nonzero"/></clipPath><clipPath id="839268741f"><path d="M 210.554688 187.515625 L 236.804688 187.515625 L 236.804688 222.734375 L 210.554688 222.734375 Z M 210.554688 187.515625 " clip-rule="nonzero"/></clipPath></defs><rect x="-37.5" width="450" fill="#ffffff" y="-37.499999" height="449.999989" fill-opacity="1"/><rect x="-37.5" width="450" fill="#ffffff" y="-37.499999" height="449.999989" fill-opacity="1"/><rect x="-37.5" width="450" fill="#ffffff" y="-37.499999" height="449.999989" fill-opacity="1"/><g clip-path="url(#0458e16629)"><g clip-path="url(#8a1bed89ce)"><path fill="#7ed957" d="M 164.445312 140.027344 L 210.554688 140.027344 L 210.554688 186.132812 L 164.445312 186.132812 Z M 164.445312 140.027344 " fill-opacity="1" fill-rule="nonzero"/></g></g><g clip-path="url(#957ccba337)"><g clip-path="url(#d81a834b84)"><path fill="#7ed957" d="M 215.433594 192.761719 L 231.949219 192.761719 L 231.949219 209.277344 L 215.433594 209.277344 Z M 215.433594 192.761719 " fill-opacity="1" fill-rule="nonzero"/></g></g><g clip-path="url(#df537021d0)"><path fill="#100f0d" d="M 193.351562 197.308594 L 192.953125 184.589844 C 198.320312 183.394531 202.128906 178.628906 202.109375 173.136719 C 202.109375 172.863281 201.886719 172.640625 201.613281 172.640625 L 197.910156 172.640625 C 197.632812 172.640625 197.410156 172.863281 197.410156 173.136719 C 197.445312 176.097656 195.601562 178.753906 192.8125 179.757812 L 192.355469 165.046875 C 196.425781 164.117188 199.304688 160.492188 199.28125 156.324219 C 199.28125 156.046875 199.058594 155.824219 198.785156 155.824219 L 195.101562 155.824219 C 194.828125 155.824219 194.605469 156.046875 194.605469 156.324219 C 194.621094 157.949219 193.699219 159.441406 192.234375 160.160156 L 191.859375 148.113281 C 191.847656 147.847656 191.625 147.636719 191.359375 147.636719 L 183.835938 147.636719 C 183.566406 147.636719 183.347656 147.847656 183.335938 148.113281 L 182.957031 160.160156 C 181.503906 159.433594 180.59375 157.945312 180.609375 156.324219 C 180.609375 156.046875 180.386719 155.824219 180.113281 155.824219 L 176.410156 155.824219 C 176.132812 155.824219 175.910156 156.046875 175.910156 156.324219 C 175.898438 160.476562 178.765625 164.09375 182.820312 165.027344 L 182.359375 179.757812 C 179.585938 178.734375 177.742188 176.09375 177.742188 173.136719 C 177.742188 172.863281 177.519531 172.640625 177.246094 172.640625 L 173.542969 172.640625 C 173.265625 172.640625 173.046875 172.863281 173.046875 173.136719 C 173.023438 178.621094 176.824219 183.386719 182.183594 184.589844 L 182.222656 184.589844 L 181.824219 197.308594 C 164.683594 194.527344 151.824219 179.480469 151.824219 162.085938 C 151.824219 142.386719 167.867188 126.386719 187.578125 126.386719 C 207.285156 126.386719 223.332031 142.386719 223.332031 162.085938 C 223.332031 179.480469 210.492188 194.507812 193.371094 197.308594 Z M 193.390625 198.304688 C 194.945312 198.058594 196.480469 197.714844 197.988281 197.269531 C 197.566406 199.742188 195.859375 201.800781 193.507812 202.675781 Z M 177.246094 197.289062 C 178.742188 197.726562 180.265625 198.0625 181.804688 198.304688 L 181.664062 202.636719 C 179.355469 201.75 177.679688 199.722656 177.246094 197.289062 Z M 201.8125 195.917969 C 201.8125 195.964844 201.8125 196.011719 201.8125 196.058594 C 201.832031 201.078125 198.355469 205.433594 193.449219 206.535156 L 193.171875 206.574219 C 192.898438 206.574219 192.671875 206.796875 192.671875 207.070312 C 192.671875 207.078125 192.671875 207.082031 192.671875 207.089844 L 193.132812 221.820312 L 182.0625 221.820312 L 182.519531 207.089844 C 182.53125 206.816406 182.320312 206.585938 182.042969 206.574219 L 181.804688 206.535156 C 176.902344 205.433594 173.421875 201.078125 173.441406 196.058594 C 173.441406 196.019531 173.441406 195.980469 173.441406 195.957031 L 173.640625 196.039062 L 174.378906 196.335938 L 174.417969 196.335938 L 175.113281 196.59375 L 175.175781 196.59375 L 175.890625 196.851562 L 175.929688 196.851562 L 176.210938 196.953125 C 176.578125 200.191406 178.863281 202.894531 182.003906 203.789062 C 182.265625 203.867188 182.542969 203.714844 182.621094 203.453125 C 182.632812 203.414062 182.640625 203.375 182.640625 203.332031 L 183.238281 184.152344 C 183.242188 184.019531 183.191406 183.890625 183.097656 183.792969 C 182.996094 183.683594 182.847656 183.625 182.699219 183.632812 L 182.421875 183.59375 C 177.695312 182.539062 174.265625 178.445312 174.058594 173.617188 L 176.765625 173.617188 C 176.980469 177.066406 179.378906 179.992188 182.71875 180.890625 C 182.988281 180.957031 183.257812 180.796875 183.324219 180.527344 C 183.332031 180.496094 183.335938 180.464844 183.335938 180.433594 L 183.816406 164.609375 C 183.828125 164.335938 183.613281 164.105469 183.339844 164.09375 C 183.339844 164.09375 183.335938 164.09375 183.335938 164.09375 L 183.097656 164.054688 C 179.652344 163.28125 177.132812 160.320312 176.925781 156.800781 L 179.632812 156.800781 C 179.820312 158.910156 181.269531 160.703125 183.296875 161.332031 C 183.5625 161.410156 183.835938 161.257812 183.914062 160.992188 C 183.925781 160.953125 183.933594 160.914062 183.933594 160.875 L 184.3125 148.589844 L 190.863281 148.589844 L 191.242188 160.875 C 191.25 161.148438 191.484375 161.363281 191.757812 161.351562 C 191.796875 161.347656 191.839844 161.34375 191.878906 161.332031 C 193.914062 160.710938 195.371094 158.917969 195.558594 156.800781 L 198.269531 156.800781 C 198.0625 160.320312 195.542969 163.28125 192.097656 164.054688 L 191.835938 164.09375 C 191.5625 164.105469 191.347656 164.335938 191.359375 164.609375 L 191.835938 180.433594 C 191.847656 180.707031 192.082031 180.921875 192.355469 180.910156 C 192.394531 180.910156 192.4375 180.902344 192.472656 180.890625 C 195.808594 179.984375 198.195312 177.058594 198.40625 173.617188 L 201.113281 173.617188 C 200.90625 178.445312 197.480469 182.539062 192.753906 183.59375 L 192.457031 183.632812 C 192.179688 183.632812 191.957031 183.855469 191.957031 184.128906 C 191.957031 184.136719 191.957031 184.144531 191.957031 184.152344 L 192.554688 203.332031 C 192.566406 203.609375 192.796875 203.820312 193.070312 203.808594 C 193.113281 203.808594 193.152344 203.800781 193.191406 203.789062 C 196.378906 202.917969 198.707031 200.191406 199.0625 196.914062 L 199.261719 196.851562 L 199.324219 196.851562 L 200 196.613281 L 200.078125 196.574219 L 200.757812 196.316406 L 200.816406 196.316406 Z M 187.578125 125.390625 C 167.3125 125.390625 150.828125 141.851562 150.828125 162.085938 C 150.835938 176.515625 159.3125 189.597656 172.488281 195.519531 C 172.449219 195.691406 172.429688 195.863281 172.425781 196.039062 C 172.398438 201.503906 176.171875 206.261719 181.503906 207.488281 L 181.066406 221.800781 L 175.175781 221.800781 C 174.898438 221.800781 174.675781 222.023438 174.675781 222.296875 C 174.675781 222.570312 174.898438 222.792969 175.175781 222.792969 L 199.980469 222.792969 C 200.253906 222.792969 200.476562 222.570312 200.476562 222.296875 C 200.476562 222.023438 200.253906 221.800781 199.980469 221.800781 L 194.105469 221.800781 L 193.667969 207.488281 C 199.027344 206.285156 202.828125 201.523438 202.808594 196.039062 C 202.808594 195.851562 202.789062 195.664062 202.746094 195.480469 C 215.878906 189.539062 224.316406 176.480469 224.328125 162.085938 C 224.328125 141.851562 207.84375 125.390625 187.578125 125.390625 " fill-opacity="1" fill-rule="nonzero"/></g><g clip-path="url(#839268741f)"><path fill="#100f0d" d="M 225.742188 213.519531 L 225.597656 208.921875 C 227.515625 208.488281 228.875 206.765625 228.867188 204.78125 C 228.867188 204.679688 228.789062 204.601562 228.691406 204.601562 L 227.367188 204.601562 C 227.269531 204.601562 227.191406 204.679688 227.191406 204.78125 C 227.203125 205.851562 226.542969 206.808594 225.546875 207.171875 L 225.386719 201.855469 C 226.839844 201.519531 227.867188 200.207031 227.859375 198.699219 C 227.859375 198.601562 227.78125 198.519531 227.679688 198.519531 L 226.367188 198.519531 C 226.269531 198.519531 226.1875 198.601562 226.1875 198.699219 C 226.195312 199.289062 225.863281 199.828125 225.34375 200.085938 L 225.207031 195.730469 C 225.203125 195.632812 225.125 195.558594 225.03125 195.558594 L 222.34375 195.558594 C 222.246094 195.558594 222.167969 195.632812 222.164062 195.730469 L 222.027344 200.085938 C 221.507812 199.824219 221.183594 199.285156 221.191406 198.699219 C 221.191406 198.601562 221.109375 198.519531 221.011719 198.519531 L 219.691406 198.519531 C 219.589844 198.519531 219.511719 198.601562 219.511719 198.699219 C 219.507812 200.203125 220.53125 201.507812 221.980469 201.847656 L 221.816406 207.171875 C 220.824219 206.804688 220.167969 205.847656 220.167969 204.78125 C 220.167969 204.679688 220.085938 204.601562 219.988281 204.601562 L 218.667969 204.601562 C 218.566406 204.601562 218.488281 204.679688 218.488281 204.78125 C 218.480469 206.761719 219.839844 208.484375 221.75 208.921875 L 221.765625 208.921875 L 221.625 213.519531 C 215.503906 212.515625 210.910156 207.074219 210.910156 200.785156 C 210.910156 193.660156 216.640625 187.875 223.679688 187.875 C 230.71875 187.875 236.449219 193.660156 236.449219 200.785156 C 236.449219 207.074219 231.863281 212.507812 225.746094 213.519531 Z M 225.753906 213.878906 C 226.308594 213.792969 226.859375 213.667969 227.398438 213.507812 C 227.246094 214.398438 226.636719 215.144531 225.796875 215.460938 Z M 219.988281 213.511719 C 220.523438 213.671875 221.066406 213.792969 221.617188 213.878906 L 221.566406 215.445312 C 220.742188 215.125 220.144531 214.394531 219.988281 213.511719 Z M 228.761719 213.015625 C 228.761719 213.035156 228.761719 213.050781 228.761719 213.066406 C 228.769531 214.882812 227.527344 216.457031 225.777344 216.855469 L 225.675781 216.871094 C 225.578125 216.871094 225.5 216.949219 225.5 217.050781 C 225.5 217.050781 225.5 217.054688 225.5 217.058594 L 225.664062 222.382812 L 221.710938 222.382812 L 221.871094 217.058594 C 221.875 216.957031 221.800781 216.875 221.703125 216.871094 L 221.617188 216.855469 C 219.867188 216.457031 218.625 214.882812 218.628906 213.066406 C 218.628906 213.054688 218.628906 213.039062 218.628906 213.03125 L 218.703125 213.058594 L 218.964844 213.167969 L 218.980469 213.167969 L 219.226562 213.261719 L 219.25 213.261719 L 219.503906 213.355469 L 219.519531 213.355469 L 219.617188 213.390625 C 219.75 214.5625 220.566406 215.539062 221.6875 215.863281 C 221.78125 215.890625 221.878906 215.835938 221.910156 215.742188 C 221.914062 215.726562 221.914062 215.714844 221.914062 215.699219 L 222.128906 208.761719 C 222.128906 208.714844 222.113281 208.667969 222.078125 208.632812 C 222.042969 208.59375 221.988281 208.570312 221.9375 208.574219 L 221.835938 208.5625 C 220.148438 208.179688 218.925781 206.699219 218.851562 204.953125 L 219.816406 204.953125 C 219.894531 206.199219 220.75 207.257812 221.945312 207.582031 C 222.039062 207.605469 222.136719 207.546875 222.160156 207.453125 C 222.160156 207.441406 222.164062 207.429688 222.164062 207.417969 L 222.335938 201.695312 C 222.339844 201.597656 222.261719 201.511719 222.164062 201.507812 L 222.078125 201.496094 C 220.847656 201.214844 219.949219 200.144531 219.875 198.871094 L 220.839844 198.871094 C 220.910156 199.636719 221.425781 200.28125 222.148438 200.511719 C 222.246094 200.539062 222.34375 200.484375 222.371094 200.386719 C 222.375 200.375 222.378906 200.359375 222.378906 200.34375 L 222.511719 195.902344 L 224.851562 195.902344 L 224.988281 200.34375 C 224.992188 200.445312 225.074219 200.519531 225.171875 200.515625 C 225.1875 200.515625 225.199219 200.515625 225.214844 200.511719 C 225.941406 200.285156 226.460938 199.636719 226.53125 198.871094 L 227.496094 198.871094 C 227.421875 200.144531 226.523438 201.214844 225.292969 201.496094 L 225.199219 201.507812 C 225.101562 201.511719 225.027344 201.597656 225.03125 201.695312 L 225.199219 207.417969 C 225.203125 207.515625 225.285156 207.59375 225.386719 207.589844 C 225.398438 207.589844 225.414062 207.585938 225.425781 207.582031 C 226.617188 207.257812 227.472656 206.199219 227.546875 204.953125 L 228.511719 204.953125 C 228.4375 206.699219 227.214844 208.179688 225.527344 208.5625 L 225.421875 208.574219 C 225.324219 208.574219 225.242188 208.65625 225.242188 208.753906 C 225.242188 208.757812 225.242188 208.757812 225.242188 208.761719 L 225.457031 215.699219 C 225.460938 215.796875 225.542969 215.875 225.640625 215.871094 C 225.65625 215.871094 225.667969 215.867188 225.683594 215.863281 C 226.820312 215.550781 227.652344 214.5625 227.78125 213.375 L 227.851562 213.355469 L 227.875 213.355469 L 228.117188 213.269531 L 228.144531 213.253906 L 228.386719 213.160156 L 228.40625 213.160156 Z M 223.679688 187.515625 C 216.441406 187.515625 210.554688 193.464844 210.554688 200.785156 C 210.558594 206 213.585938 210.730469 218.289062 212.875 C 218.273438 212.933594 218.269531 212.996094 218.269531 213.058594 C 218.257812 215.039062 219.605469 216.757812 221.511719 217.199219 L 221.355469 222.375 L 219.25 222.375 C 219.152344 222.375 219.070312 222.457031 219.070312 222.554688 C 219.070312 222.65625 219.152344 222.734375 219.25 222.734375 L 228.109375 222.734375 C 228.207031 222.734375 228.285156 222.65625 228.285156 222.554688 C 228.285156 222.457031 228.207031 222.375 228.109375 222.375 L 226.011719 222.375 L 225.855469 217.199219 C 227.769531 216.765625 229.125 215.042969 229.117188 213.058594 C 229.117188 212.992188 229.113281 212.925781 229.097656 212.859375 C 233.785156 210.710938 236.800781 205.988281 236.804688 200.785156 C 236.804688 193.464844 230.917969 187.515625 223.679688 187.515625 " fill-opacity="1" fill-rule="nonzero"/></g><g fill="#7ed957" fill-opacity="1"><g transform="translate(151.296507, 243.504169)"><g><path d="M 4.464844 -9.875 L 4.464844 -12.246094 C 4.464844 -12.664062 4.382812 -12.960938 4.171875 -13.210938 C 4.066406 -13.316406 3.902344 -13.378906 3.710938 -13.378906 C 3.3125 -13.378906 3.125 -13.085938 3.039062 -12.8125 C 2.976562 -12.644531 2.957031 -12.457031 2.957031 -12.246094 L 2.957031 -2.976562 C 2.957031 -2.539062 3.0625 -2.242188 3.269531 -2.011719 C 3.375 -1.910156 3.523438 -1.84375 3.710938 -1.84375 C 4.109375 -1.84375 4.300781 -2.097656 4.382812 -2.410156 C 4.445312 -2.558594 4.464844 -2.746094 4.464844 -2.976562 L 4.464844 -5.765625 L 3.566406 -5.765625 L 3.566406 -7.675781 L 6.730469 -7.675781 L 6.730469 0 L 5.390625 0 L 5.117188 -0.734375 C 4.699219 -0.210938 4.089844 0.167969 3.355469 0.167969 C 2.621094 0.167969 2.117188 -0.0195312 1.742188 -0.355469 C 1.363281 -0.671875 1.113281 -1.070312 0.945312 -1.488281 C 0.753906 -1.972656 0.671875 -2.539062 0.691406 -3.167969 L 0.691406 -12.246094 C 0.714844 -12.855469 0.839844 -13.421875 1.070312 -13.902344 C 1.257812 -14.324219 1.53125 -14.742188 1.949219 -15.054688 C 2.371094 -15.371094 2.957031 -15.582031 3.710938 -15.582031 C 4.464844 -15.582031 5.03125 -15.371094 5.453125 -15.054688 C 5.871094 -14.742188 6.164062 -14.324219 6.355469 -13.902344 C 6.585938 -13.421875 6.710938 -12.855469 6.730469 -12.246094 L 6.730469 -9.875 Z M 4.464844 -9.875 "/></g></g></g><g fill="#7ed957" fill-opacity="1"><g transform="translate(160.50054, 243.504169)"><g><path d="M 4.59375 -11.28125 C 4.59375 -11.785156 4.570312 -12.351562 4.425781 -12.792969 C 4.277344 -13.210938 4.046875 -13.503906 3.691406 -13.503906 C 3.105469 -13.484375 2.914062 -12.875 2.914062 -11.972656 C 2.914062 -11.449219 3.144531 -10.90625 3.480469 -10.316406 C 3.816406 -9.730469 4.257812 -9.121094 4.699219 -8.472656 C 5.222656 -7.695312 5.746094 -6.898438 6.144531 -6.125 C 6.542969 -5.347656 6.816406 -4.550781 6.816406 -3.710938 C 6.816406 -2.683594 6.648438 -1.71875 6.164062 -1.007812 C 5.683594 -0.292969 4.90625 0.167969 3.667969 0.167969 C 2.222656 0.167969 1.40625 -0.378906 0.945312 -1.214844 C 0.480469 -2.054688 0.378906 -3.167969 0.378906 -4.320312 L 2.601562 -4.53125 C 2.601562 -3.878906 2.621094 -3.230469 2.789062 -2.746094 C 2.9375 -2.242188 3.1875 -1.910156 3.667969 -1.910156 C 4.339844 -1.910156 4.59375 -2.621094 4.59375 -3.605469 C 4.59375 -4.109375 4.339844 -4.699219 4.003906 -5.304688 C 3.816406 -5.597656 3.628906 -5.914062 3.417969 -6.226562 C 2.976562 -6.855469 2.496094 -7.570312 1.992188 -8.347656 C 1.488281 -9.121094 1.113281 -9.917969 0.878906 -10.738281 C 0.753906 -11.136719 0.691406 -11.554688 0.691406 -11.972656 C 0.691406 -12.8125 0.878906 -13.714844 1.363281 -14.40625 C 1.84375 -15.078125 2.578125 -15.558594 3.648438 -15.582031 C 5.011719 -15.601562 5.808594 -15.035156 6.25 -14.21875 C 6.6875 -13.378906 6.816406 -12.351562 6.816406 -11.492188 Z M 4.59375 -11.28125 "/></g></g></g><g fill="#7ed957" fill-opacity="1"><g transform="translate(169.348169, 243.504169)"><g><path d="M 0.0429688 -13.085938 L 0.0429688 -15.414062 L 6.585938 -15.414062 L 6.585938 -13.085938 L 4.445312 -13.085938 L 4.445312 0 L 2.179688 0 L 2.179688 -13.085938 Z M 0.0429688 -13.085938 "/></g></g></g><g fill="#7ed957" fill-opacity="1"><g transform="translate(177.629738, 243.504169)"><g><path d="M 6.730469 -3.167969 C 6.710938 -2.539062 6.585938 -1.972656 6.355469 -1.488281 C 6.164062 -1.070312 5.871094 -0.671875 5.453125 -0.355469 C 5.03125 -0.0195312 4.464844 0.167969 3.710938 0.167969 C 2.957031 0.167969 2.371094 -0.0195312 1.949219 -0.355469 C 1.53125 -0.671875 1.257812 -1.070312 1.070312 -1.488281 C 0.839844 -1.972656 0.714844 -2.539062 0.691406 -3.167969 L 0.691406 -12.246094 C 0.714844 -12.855469 0.839844 -13.421875 1.070312 -13.902344 C 1.257812 -14.324219 1.53125 -14.742188 1.949219 -15.054688 C 2.371094 -15.371094 2.957031 -15.582031 3.710938 -15.582031 C 4.464844 -15.582031 5.03125 -15.371094 5.453125 -15.054688 C 5.871094 -14.742188 6.164062 -14.324219 6.355469 -13.902344 C 6.585938 -13.421875 6.710938 -12.855469 6.730469 -12.246094 Z M 4.464844 -12.246094 C 4.464844 -12.664062 4.382812 -12.960938 4.171875 -13.210938 C 4.066406 -13.316406 3.902344 -13.378906 3.710938 -13.378906 C 3.3125 -13.378906 3.125 -13.085938 3.039062 -12.8125 C 2.976562 -12.644531 2.957031 -12.457031 2.957031 -12.246094 L 2.957031 -3.167969 C 2.957031 -2.726562 3.0625 -2.433594 3.269531 -2.203125 C 3.375 -2.097656 3.523438 -2.035156 3.710938 -2.035156 C 4.109375 -2.035156 4.300781 -2.285156 4.382812 -2.601562 C 4.445312 -2.746094 4.464844 -2.9375 4.464844 -3.167969 Z M 4.464844 -12.246094 "/></g></g></g><g fill="#7ed957" fill-opacity="1"><g transform="translate(186.707978, 243.504169)"><g><path d="M 4.59375 0 L 3.144531 -9.6875 L 3.0625 -10.339844 L 2.9375 -10.339844 L 2.9375 0 L 0.839844 0 L 0.839844 -15.414062 L 3.605469 -15.414062 L 4.949219 -8.367188 L 5.054688 -7.550781 L 5.097656 -7.550781 L 5.199219 -8.367188 L 6.542969 -15.414062 L 9.3125 -15.414062 L 9.3125 0 L 7.214844 0 L 7.214844 -10.339844 L 7.085938 -10.339844 L 7.003906 -9.6875 L 5.558594 0 Z M 4.59375 0 "/></g></g></g><g fill="#7ed957" fill-opacity="1"><g transform="translate(198.511651, 243.504169)"><g><path d="M 0.210938 0 L 2.539062 -15.414062 L 5.304688 -15.414062 L 7.632812 0 L 5.429688 0 L 5.011719 -3.144531 L 2.832031 -3.144531 L 2.410156 0 Z M 4.046875 -10.402344 L 3.984375 -10.800781 L 3.859375 -10.800781 L 3.796875 -10.402344 L 3.144531 -5.535156 L 4.699219 -5.535156 Z M 4.046875 -10.402344 "/></g></g></g><g fill="#7ed957" fill-opacity="1"><g transform="translate(208.009188, 243.504169)"><g><path d="M 0.0429688 -13.085938 L 0.0429688 -15.414062 L 6.585938 -15.414062 L 6.585938 -13.085938 L 4.445312 -13.085938 L 4.445312 0 L 2.179688 0 L 2.179688 -13.085938 Z M 0.0429688 -13.085938 "/></g></g></g><g fill="#7ed957" fill-opacity="1"><g transform="translate(216.290756, 243.504169)"><g><path d="M 6.730469 -3.167969 C 6.710938 -2.539062 6.585938 -1.972656 6.355469 -1.488281 C 6.164062 -1.070312 5.871094 -0.671875 5.453125 -0.355469 C 5.03125 -0.0195312 4.464844 0.167969 3.710938 0.167969 C 2.957031 0.167969 2.371094 -0.0195312 1.949219 -0.355469 C 1.53125 -0.671875 1.257812 -1.070312 1.070312 -1.488281 C 0.839844 -1.972656 0.714844 -2.539062 0.691406 -3.167969 L 0.691406 -12.246094 C 0.714844 -12.855469 0.839844 -13.421875 1.070312 -13.902344 C 1.257812 -14.324219 1.53125 -14.742188 1.949219 -15.054688 C 2.371094 -15.371094 2.957031 -15.582031 3.710938 -15.582031 C 4.464844 -15.582031 5.03125 -15.371094 5.453125 -15.054688 C 5.871094 -14.742188 6.164062 -14.324219 6.355469 -13.902344 C 6.585938 -13.421875 6.710938 -12.855469 6.730469 -12.246094 Z M 4.464844 -12.246094 C 4.464844 -12.664062 4.382812 -12.960938 4.171875 -13.210938 C 4.066406 -13.316406 3.902344 -13.378906 3.710938 -13.378906 C 3.3125 -13.378906 3.125 -13.085938 3.039062 -12.8125 C 2.976562 -12.644531 2.957031 -12.457031 2.957031 -12.246094 L 2.957031 -3.167969 C 2.957031 -2.726562 3.0625 -2.433594 3.269531 -2.203125 C 3.375 -2.097656 3.523438 -2.035156 3.710938 -2.035156 C 4.109375 -2.035156 4.300781 -2.285156 4.382812 -2.601562 C 4.445312 -2.746094 4.464844 -2.9375 4.464844 -3.167969 Z M 4.464844 -12.246094 "/></g></g></g><path stroke-linecap="round" transform="matrix(0.750373, 0, 0, 0.75, 128.653136, 221.657124)" fill="none" stroke-linejoin="miter" d="M 0.998447 0.998835 L 155.926538 0.998835 " stroke="#000000" stroke-width="2" stroke-opacity="1" stroke-miterlimit="4"/><path stroke-linecap="round" transform="matrix(0.750373, 0, 0, 0.75, 128.653136, 248.157113)" fill="none" stroke-linejoin="miter" d="M 0.998447 0.998849 L 155.926538 0.998849 " stroke="#000000" stroke-width="2" stroke-opacity="1" stroke-miterlimit="4"/><g fill="#000000" fill-opacity="1"><g transform="translate(148.087754, 258.951582)"><g><path d="M 0.515625 -5.4375 L 0.515625 0 L 1.019531 0 L 1.019531 -2.550781 L 3.089844 -2.550781 L 3.089844 -2.996094 L 1.019531 -2.996094 L 1.019531 -4.984375 L 3.4375 -4.984375 L 3.4375 -5.4375 Z M 0.515625 -5.4375 "/></g></g></g><g fill="#000000" fill-opacity="1"><g transform="translate(154.054934, 258.951582)"><g><path d="M 1.019531 -2.210938 L 2.023438 -2.210938 C 2.105469 -2.210938 2.1875 -2.210938 2.273438 -2.214844 L 3.136719 0 L 3.6875 0 L 2.746094 -2.3125 C 3.261719 -2.480469 3.6875 -2.886719 3.6875 -3.75 L 3.6875 -3.890625 C 3.6875 -5.144531 2.796875 -5.4375 2.023438 -5.4375 L 0.515625 -5.4375 L 0.515625 0 L 1.019531 0 Z M 1.019531 -2.664062 L 1.019531 -4.984375 L 2.035156 -4.984375 C 2.503906 -4.984375 3.171875 -4.808594 3.171875 -3.875 L 3.171875 -3.769531 C 3.171875 -2.835938 2.503906 -2.664062 2.035156 -2.664062 Z M 1.019531 -2.664062 "/></g></g></g><g fill="#000000" fill-opacity="1"><g transform="translate(160.517066, 258.951582)"><g><path d="M 2.257812 0.078125 C 3.507812 0.078125 4.125 -0.695312 4.125 -2.578125 L 4.125 -2.859375 C 4.125 -4.742188 3.507812 -5.515625 2.257812 -5.515625 C 1.019531 -5.515625 0.398438 -4.742188 0.398438 -2.859375 L 0.398438 -2.578125 C 0.398438 -0.695312 1.019531 0.078125 2.257812 0.078125 Z M 2.238281 -0.375 C 1.324219 -0.375 0.914062 -1.03125 0.914062 -2.578125 L 0.914062 -2.859375 C 0.914062 -4.40625 1.324219 -5.0625 2.238281 -5.0625 L 2.285156 -5.0625 C 3.199219 -5.0625 3.609375 -4.40625 3.609375 -2.859375 L 3.609375 -2.578125 C 3.609375 -1.03125 3.199219 -0.375 2.285156 -0.375 Z M 2.238281 -0.375 "/></g></g></g><g fill="#000000" fill-opacity="1"><g transform="translate(167.432311, 258.951582)"><g><path d="M 4.609375 -4.566406 L 4.585938 -3.351562 L 4.585938 0 L 5.089844 0 L 5.089844 -5.4375 L 4.382812 -5.4375 L 2.800781 -0.863281 L 1.21875 -5.4375 L 0.515625 -5.4375 L 0.515625 0 L 1.019531 0 L 1.019531 -3.351562 L 0.988281 -4.566406 L 2.574219 0 L 3.027344 0 Z M 4.609375 -4.566406 "/></g></g></g><g fill="#000000" fill-opacity="1"><g transform="translate(175.421091, 258.951582)"><g/></g></g><g fill="#000000" fill-opacity="1"><g transform="translate(179.206349, 258.951582)"><g><path d="M 2.378906 0.078125 C 3.242188 0.078125 3.742188 -0.242188 4.035156 -0.550781 L 4.035156 -2.675781 L 2.601562 -2.675781 L 2.601562 -2.230469 L 3.535156 -2.230469 L 3.535156 -0.792969 C 3.339844 -0.585938 2.960938 -0.375 2.410156 -0.375 L 2.363281 -0.375 C 1.367188 -0.375 0.921875 -1.03125 0.921875 -2.578125 L 0.921875 -2.859375 C 0.921875 -4.40625 1.386719 -5.0625 2.308594 -5.0625 L 2.347656 -5.0625 C 3.1875 -5.0625 3.527344 -4.578125 3.527344 -3.457031 L 4.035156 -3.457031 L 4.035156 -3.652344 C 4.035156 -4.878906 3.472656 -5.515625 2.308594 -5.515625 C 1.066406 -5.515625 0.398438 -4.742188 0.398438 -2.859375 L 0.398438 -2.578125 C 0.398438 -0.695312 1.066406 0.078125 2.378906 0.078125 Z M 2.378906 0.078125 "/></g></g></g><g fill="#000000" fill-opacity="1"><g transform="translate(186.114625, 258.951582)"><g><path d="M 2.007812 -2.578125 C 2.957031 -2.445312 3.351562 -2.125 3.351562 -1.484375 L 3.351562 -1.421875 C 3.351562 -0.761719 2.859375 -0.375 2.121094 -0.375 L 2.070312 -0.375 C 1.339844 -0.375 0.824219 -0.816406 0.824219 -1.769531 L 0.320312 -1.769531 L 0.320312 -1.699219 C 0.320312 -0.578125 0.941406 0.078125 2.089844 0.078125 C 3.179688 0.078125 3.867188 -0.496094 3.867188 -1.457031 L 3.867188 -1.527344 C 3.867188 -2.363281 3.382812 -2.84375 2.195312 -3.003906 C 1.199219 -3.144531 0.898438 -3.484375 0.898438 -4.0625 L 0.898438 -4.121094 C 0.898438 -4.707031 1.402344 -5.0625 2.0625 -5.0625 L 2.113281 -5.0625 C 2.941406 -5.0625 3.304688 -4.628906 3.304688 -3.597656 L 3.804688 -3.597656 L 3.804688 -3.765625 C 3.804688 -4.886719 3.304688 -5.515625 2.089844 -5.515625 C 1.058594 -5.515625 0.382812 -4.964844 0.382812 -4.058594 L 0.382812 -3.988281 C 0.382812 -3.269531 0.824219 -2.738281 2.007812 -2.578125 Z M 2.007812 -2.578125 "/></g></g></g><g fill="#000000" fill-opacity="1"><g transform="translate(192.695259, 258.951582)"><g><path d="M 2.042969 -4.984375 L 3.429688 -4.984375 L 3.429688 -5.4375 L 0.160156 -5.4375 L 0.160156 -4.984375 L 1.539062 -4.984375 L 1.539062 0 L 2.042969 0 Z M 2.042969 -4.984375 "/></g></g></g><g fill="#000000" fill-opacity="1"><g transform="translate(198.676381, 258.951582)"><g/></g></g><g fill="#000000" fill-opacity="1"><g transform="translate(202.461636, 258.951582)"><g><path d="M 2.042969 -4.984375 L 3.429688 -4.984375 L 3.429688 -5.4375 L 0.160156 -5.4375 L 0.160156 -4.984375 L 1.539062 -4.984375 L 1.539062 0 L 2.042969 0 Z M 2.042969 -4.984375 "/></g></g></g><g fill="#000000" fill-opacity="1"><g transform="translate(208.442758, 258.951582)"><g><path d="M 0.515625 -5.4375 L 0.515625 0 L 3.546875 0 L 3.546875 -0.453125 L 1.019531 -0.453125 L 1.019531 -2.550781 L 3.199219 -2.550781 L 3.199219 -2.996094 L 1.019531 -2.996094 L 1.019531 -4.984375 L 3.546875 -4.984375 L 3.546875 -5.4375 Z M 0.515625 -5.4375 "/></g></g></g><g fill="#000000" fill-opacity="1"><g transform="translate(214.660896, 258.951582)"><g><path d="M 1.769531 -5.492188 L 0.203125 0 L 0.746094 0 L 1.136719 -1.394531 L 3.121094 -1.394531 L 3.511719 0 L 4.058594 0 L 2.488281 -5.492188 Z M 2.125 -4.941406 L 2.992188 -1.847656 L 1.261719 -1.847656 Z M 2.125 -4.941406 "/></g></g></g><g fill="#000000" fill-opacity="1"><g transform="translate(221.311237, 258.951582)"><g><path d="M 4.609375 -4.566406 L 4.585938 -3.351562 L 4.585938 0 L 5.089844 0 L 5.089844 -5.4375 L 4.382812 -5.4375 L 2.800781 -0.863281 L 1.21875 -5.4375 L 0.515625 -5.4375 L 0.515625 0 L 1.019531 0 L 1.019531 -3.351562 L 0.988281 -4.566406 L 2.574219 0 L 3.027344 0 Z M 4.609375 -4.566406 "/></g></g></g></svg>